<?xml version="1.0" encoding="utf-8"?>
<!-- Generator: Adobe Illustrator 25.0.0, SVG Export Plug-In . SVG Version: 6.00 Build 0)  -->
<svg version="1.1" id="Calque_1" xmlns="http://www.w3.org/2000/svg" xmlns:xlink="http://www.w3.org/1999/xlink" x="0px" y="0px"
	 viewBox="0 0 63 63" style="enable-background:new 0 0 63 63;" xml:space="preserve">
<style type="text/css">
	.st0{fill-rule:evenodd;clip-rule:evenodd;fill:#475B67;}
</style>
<path id="Fill-1" class="st0" d="M60.9,60.9h-2V49.8h-2v11.2h-6.1v-6.9L57,42.6c0.6,0.2,1.1,0.5,1.6,0.8c1.5,1.1,2.4,2.9,2.4,4.8
	V60.9z M2,48.2c0-1.9,0.9-3.7,2.4-4.8c0.5-0.4,1-0.6,1.6-0.8l6.2,11.5v6.9H6.1V49.8h-2v11.2H2V48.2z M9.9,41.7l1.2,0.8l-2.3,1.1
	L8,42.1L9.9,41.7z M13.2,39.6c0.6,0,1.1-0.1,1.7-0.2l0.2,0.8l-1.9,1.3l-1.9-1.3l0.2-0.8C12.1,39.5,12.6,39.6,13.2,39.6L13.2,39.6z
	 M9.1,31.2c0-0.5,0.4-0.9,0.9-1l2.3-0.3c1-0.1,1.8-0.6,2.5-1.2l0.1,0c1.4,0.3,2.3,1.6,2.3,3v1.9c0,2.2-1.8,4.1-4.1,4.1
	s-4.1-1.8-4.1-4.1V31.2z M6.4,30.3c-0.2-0.7-0.3-1.4-0.3-2.1v-4.8c0-0.6,0.5-1,1-1h8.1c1.7,0,3.3,0.9,4.2,2.3
	c-0.1,0.6-0.1,1.2-0.1,1.8v5.2c0-2.1-1.3-4-3.3-4.8c0.2-0.5,0.2-1,0.2-1.5h-2c0,1.2-0.9,2.3-2.1,2.5l-2.3,0.3
	c-1.5,0.2-2.6,1.5-2.6,3v0.5C6.8,31.3,6.6,30.8,6.4,30.3L6.4,30.3z M10.2,18.8c0.1,0.5,0.2,1.1,0.5,1.5h-2
	C9,19.7,9.6,19.2,10.2,18.8L10.2,18.8z M14.2,8.1c1.5,0,2.8,0.8,3.5,2h-7C11.4,8.9,12.7,8.1,14.2,8.1L14.2,8.1z M14.2,16.3
	c-2.2,0-4.1-1.8-4.1-4.1h8.1C18.3,14.4,16.5,16.3,14.2,16.3L14.2,16.3z M12.2,18.3h4.1c0,1.1-0.9,2-2,2S12.2,19.4,12.2,18.3
	L12.2,18.3z M20.3,21.7c-0.1,0.2-0.1,0.3-0.2,0.5c-0.7-0.7-1.6-1.2-2.6-1.5c0.4-0.5,0.7-1.2,0.8-1.9C19.3,19.4,20,20.4,20.3,21.7
	L20.3,21.7z M31.5,16.3c5.6,0,10.2,4.6,10.2,10.2v12.5c-0.7-0.3-1.5-0.5-2.4-0.6l-2-0.3c-0.8-0.1-1.4-0.7-1.6-1.5
	c2.4-1.4,4-3.9,4-6.9v-5.1l-2.3-0.5c-2-0.4-3.6-1.5-4.8-3.1v-2.7h-2V21c-1.2,1.6-2.9,2.7-4.8,3.1l-2.3,0.5v4.9c0,3,1.6,5.6,4,7
	c-0.2,0.8-0.8,1.4-1.7,1.6l-2,0.3c-0.8,0.1-1.6,0.4-2.4,0.6V26.4C21.3,20.8,25.9,16.3,31.5,16.3L31.5,16.3z M27.5,12.7
	c0.1,0.7,0.4,1.4,0.8,1.9c-1,0.3-2,0.7-2.9,1.2C25.6,14.5,26.4,13.4,27.5,12.7L27.5,12.7z M31.5,2c1.5,0,2.8,0.8,3.5,2h-7
	C28.7,2.9,30,2,31.5,2L31.5,2z M31.5,10.2c-2.2,0-4.1-1.8-4.1-4.1h8.1C35.6,8.3,33.7,10.2,31.5,10.2L31.5,10.2z M29.5,12.2h4.1
	c0,1.1-0.9,2-2,2C30.4,14.2,29.5,13.3,29.5,12.2L29.5,12.2z M37.5,15.8c-0.9-0.5-1.8-0.9-2.9-1.2c0.4-0.6,0.7-1.2,0.8-1.9
	C36.6,13.4,37.4,14.5,37.5,15.8L37.5,15.8z M44.7,18.8c0.1,0.8,0.4,1.5,0.9,2.1c-1,0.4-1.9,0.9-2.6,1.7c-0.1-0.3-0.2-0.6-0.3-0.8
	C42.9,20.4,43.7,19.4,44.7,18.8L44.7,18.8z M48.8,8.1c1.5,0,2.8,0.8,3.5,2h-7C46,8.9,47.3,8.1,48.8,8.1L48.8,8.1z M53.8,6.1
	c1.7,0,3,1.4,3,3c0,1.3-0.8,2.4-2,2.9c-0.1-2.2-1.3-4.1-3.1-5.1C52.3,6.4,53.1,6.1,53.8,6.1L53.8,6.1z M48.8,16.3
	c-2.2,0-4.1-1.8-4.1-4.1h8.1C52.8,14.4,51,16.3,48.8,16.3L48.8,16.3z M54.7,21.2c-0.8-0.4-1.6-0.7-2.5-0.8c0.3-0.5,0.5-1,0.6-1.6
	C53.7,19.3,54.4,20.2,54.7,21.2L54.7,21.2z M50.8,18.3c0,1.1-0.9,2-2,2s-2-0.9-2-2H50.8z M56.5,30.3c-0.2,0.5-0.4,1-0.7,1.4v-0.5
	c0-1.5-1.1-2.8-2.6-3l-2.3-0.3c-1.2-0.2-2.1-1.2-2.1-2.5h-2c0,0.5,0.1,1,0.2,1.5c-2,0.7-3.3,2.6-3.3,4.8v-5.2c0-0.5,0-0.9-0.1-1.4
	c1.1-1.7,2.9-2.7,4.9-2.7H51c3.2,0,5.8,2.6,5.8,5.8C56.9,28.9,56.8,29.6,56.5,30.3L56.5,30.3z M53.8,33.5c0,2.2-1.8,4.1-4.1,4.1
	c-2.2,0-4.1-1.8-4.1-4.1v-1.9c0-1.4,0.9-2.6,2.3-3l0.1,0c0.7,0.7,1.5,1.1,2.5,1.2l2.3,0.3c0.5,0.1,0.9,0.5,0.9,1V33.5z M51.7,40.2
	l-1.9,1.3l-1.9-1.3l0.2-0.8c0.5,0.2,1.1,0.2,1.7,0.2c0.6,0,1.1-0.1,1.7-0.2L51.7,40.2z M54.9,42.1l-0.9,1.6l-2.3-1.1l1.2-0.8
	L54.9,42.1z M52.2,47.2l-0.3-0.6l0.5-1.5l0.7,0.4L52.2,47.2z M49.8,51.7l-1-1.9v-0.5c0-0.5,0-1.1-0.1-1.6h1.5l0.8,1.7L49.8,51.7z
	 M46.7,54.9c0.8,0,1.5-0.5,1.8-1.1l0.2,0.4v6.9h-2V54.9z M40.6,59.1l1.1-2.8c0.2-0.5,0.3-0.9,0.5-1.4h2.5v6.1h-4.1V59.1z M46.8,43
	c-0.3-0.4-0.6-0.8-0.9-1.2l0.6-0.1l1.2,0.8L46.8,43z M50.1,45.7h-1.9c-0.1-0.3-0.2-0.6-0.4-0.9l2-1l0.8,0.4L50.1,45.7z M43.7,34.9
	l0.2,0.2c0.4,1.4,1.2,2.6,2.3,3.4l-0.3,1.3L44,40.1c-0.1-0.1-0.2-0.1-0.3-0.2V34.9z M32.5,52.1l6.3-11.8l0.1,0
	c4.5,0.7,7.8,4.5,7.8,9v3.5h-4.1c0-0.4,0.1-0.8,0.1-1.2c0-1.3-0.2-2.7-0.6-3.9l-0.4-1.3L39.7,47l0.4,1.3c0.4,1.1,0.5,2.2,0.5,3.3
	c0,1.3-0.3,2.6-0.7,3.9l-1.3,3.2v2.2h-6.1V52.1z M31.5,49.7l-2.1-4h4.3L31.5,49.7z M29.2,37.3c0.7,0.2,1.5,0.3,2.3,0.3h0.2
	c0.7,0,1.4-0.1,2-0.3c0.5,1.3,1.6,2.3,3,2.6l-2,3.7h-6.4l-2-3.7C27.7,39.6,28.8,38.6,29.2,37.3L29.2,37.3z M31.5,23
	c1.4,1.6,3.3,2.7,5.4,3.1l0.7,0.1v3.4c0,3.2-2.6,5.9-5.9,5.9h-0.2c-3.4,0-6.1-2.7-6.1-6.1v-3.2l0.7-0.1C28.2,25.7,30.1,24.6,31.5,23
	L31.5,23z M23.1,55.5c-0.5-1.2-0.7-2.5-0.7-3.9c0-1.1,0.2-2.2,0.5-3.3l0.4-1.3l-1.9-0.6L21,47.7c-0.4,1.3-0.6,2.6-0.6,3.9
	c0,0.4,0,0.8,0.1,1.2h-4.1v-3.5c0-4.5,3.3-8.3,7.8-9l0.1,0l6.3,11.8v8.9h-6.1v-2.2L23.1,55.5z M18.3,54.9h2.5
	c0.1,0.5,0.3,0.9,0.5,1.4l1.1,2.8v1.8h-4.1V54.9z M14.2,54.1l0.2-0.4c0.3,0.7,1,1.1,1.8,1.1v6.1h-2V54.1z M12.8,47.7h1.5
	c-0.1,0.5-0.1,1.1-0.1,1.6v0.5l-1,1.9L12,49.4L12.8,47.7z M10.6,45.1l0.5,1.5l-0.3,0.6l-0.9-1.8L10.6,45.1z M12.9,45.7l-0.5-1.5
	l0.8-0.4l2,1c-0.1,0.3-0.3,0.6-0.4,0.9L12.9,45.7L12.9,45.7z M16.5,41.7l0.6,0.1c-0.3,0.4-0.6,0.8-0.9,1.2l-1-0.5L16.5,41.7z
	 M19.1,35.1l0.2-0.2V40c-0.1,0.1-0.2,0.1-0.3,0.2l-1.9-0.4l-0.3-1.3C17.9,37.6,18.7,36.5,19.1,35.1L19.1,35.1z M59.8,41.8
	c-1-0.7-2.1-1.2-3.2-1.4l-2.9-0.6l-0.3-1.3c1.1-0.8,2-2,2.3-3.4l0.5-0.5c1-1,1.8-2.2,2.3-3.6c0.3-0.9,0.5-1.8,0.5-2.8
	c0-2-0.8-3.9-2-5.3v-0.6c0-2.6-1.7-4.8-4-5.7c0.7-0.7,1.3-1.5,1.6-2.5c2.5-0.3,4.4-2.4,4.4-5c0-2.8-2.3-5.1-5.1-5.1
	c-1.7,0-3.2,0.8-4.1,2.1c-0.3,0-0.6-0.1-1-0.1c-3.4,0-6.1,2.7-6.1,6.1c0,1.8,0.8,3.3,1.9,4.4c-1.4,0.5-2.5,1.5-3.2,2.7
	c-0.5-0.7-1.1-1.4-1.8-2v-1.1c0-2.6-1.7-4.8-4-5.7c1.2-1.1,1.9-2.7,1.9-4.5c0-3.4-2.7-6.1-6.1-6.1s-6.1,2.7-6.1,6.1
	c0,1.8,0.8,3.3,1.9,4.5c-2.3,0.9-4,3.1-4,5.7v1.1c-0.7,0.6-1.3,1.3-1.8,2c-0.7-1.3-1.8-2.2-3.2-2.7c1.2-1.1,1.9-2.7,1.9-4.4
	c0-3.4-2.7-6.1-6.1-6.1s-6.1,2.7-6.1,6.1c0,1.8,0.8,3.3,1.9,4.5c-1.7,0.6-3,2-3.6,3.8c-1.4,0.3-2.4,1.5-2.4,3v4.8
	c0,1,0.2,1.9,0.5,2.8c0.5,1.4,1.2,2.6,2.3,3.6l0.5,0.5c0.4,1.4,1.2,2.6,2.3,3.4l-0.3,1.3l-2.9,0.6c-1.2,0.2-2.3,0.7-3.2,1.4
	c-2,1.5-3.2,3.9-3.2,6.4V63h63V48.2C63,45.7,61.8,43.3,59.8,41.8L59.8,41.8z"/>
<path id="Fill-3" class="st0" d="M31.5,33.5c1.6,0,3.1-0.9,3.8-2.4l0.1-0.2L33.6,30l-0.1,0.2c-0.4,0.8-1.2,1.3-2,1.3
	c-0.9,0-1.6-0.5-2-1.3L29.4,30l-1.8,0.9l0.1,0.2C28.4,32.6,29.8,33.5,31.5,33.5"/>
</svg>
