<?xml version="1.0" encoding="utf-8"?>
<!-- Generator: Adobe Illustrator 25.0.0, SVG Export Plug-In . SVG Version: 6.00 Build 0)  -->
<svg version="1.1" id="Calque_1" xmlns="http://www.w3.org/2000/svg" xmlns:xlink="http://www.w3.org/1999/xlink" x="0px" y="0px"
	 viewBox="0 0 512 512" style="enable-background:new 0 0 512 512;" xml:space="preserve">
<style type="text/css">
	.st0{fill:#475B67;}
</style>
<g id="Count_Down">
	<g id="Outline">
		<circle class="st0" cx="256.2" cy="288" r="8"/>
		<path class="st0" d="M209,143.4c-1.4-4.2-5.9-6.5-10.1-5.1c-4.2,1.4-6.5,5.9-5.1,10.1c1.4,4.2,5.9,6.5,10.1,5.1
			C208.1,152.2,210.4,147.6,209,143.4C209,143.4,209,143.4,209,143.4z"/>
		<path class="st0" d="M127.6,117.5c-1.4-4.2-5.9-6.5-10.1-5.1c-4.2,1.4-6.5,5.9-5.1,10.1c1.4,4.2,5.9,6.5,10.1,5.1c0,0,0,0,0,0
			C126.7,126.2,129,121.7,127.6,117.5z"/>
		<path class="st0" d="M351.6,125.5c-1.4-4.2-5.9-6.5-10.1-5.1c-4.2,1.4-6.5,5.9-5.1,10.1c1.4,4.2,5.9,6.5,10.1,5.1c0,0,0,0,0,0
			C350.7,134.2,353,129.7,351.6,125.5z"/>
		<path class="st0" d="M279.6,5.5c-1.4-4.2-5.9-6.5-10.1-5.1c-4.2,1.4-6.5,5.9-5.1,10.1c1.4,4.2,5.9,6.5,10.1,5.1
			C278.7,14.2,281,9.7,279.6,5.5C279.6,5.5,279.6,5.5,279.6,5.5z"/>
		<path class="st0" d="M166.7,165c-2.6-3.6-7.6-4.4-11.2-1.8s-4.4,7.6-1.8,11.2c2.6,3.6,7.6,4.4,11.2,1.8
			C168.5,173.6,169.3,168.6,166.7,165C166.7,165,166.7,165,166.7,165z"/>
		<path class="st0" d="M123.6,211.6c3.6,2.6,8.6,1.8,11.2-1.8c2.6-3.6,1.8-8.6-1.8-11.2c-3.6-2.6-8.6-1.8-11.2,1.8c0,0,0,0,0,0
			C119.3,204,120.1,209,123.6,211.6z"/>
		<circle class="st0" cx="109" cy="248.6" r="8"/>
		<circle class="st0" cx="104" cy="296" r="8"/>
		<path class="st0" d="M116.4,350.2c4.2-1.4,6.5-5.9,5.1-10.1c-1.4-4.2-5.9-6.5-10.1-5.1c-4.2,1.4-6.5,5.9-5.1,10.1
			C107.7,349.3,112.2,351.6,116.4,350.2C116.4,350.2,116.4,350.2,116.4,350.2z"/>
		<path class="st0" d="M142.4,390.3c3.6-2.6,4.4-7.6,1.8-11.2c-2.6-3.6-7.6-4.4-11.2-1.8s-4.4,7.6-1.8,11.2c0,0,0,0,0,0
			C133.9,392.1,138.9,392.9,142.4,390.3z"/>
		<path class="st0" d="M168.4,422.1c3.6,2.6,8.6,1.8,11.2-1.8c2.6-3.6,1.8-8.6-1.8-11.2c-3.6-2.6-8.6-1.8-11.2,1.8c0,0,0,0,0,0
			C164.1,414.5,164.9,419.5,168.4,422.1z"/>
		<path class="st0" d="M214.2,442.6c4.2,1.4,8.7-0.9,10.1-5.1c1.4-4.2-0.9-8.7-5.1-10.1c-4.2-1.4-8.7,0.9-10.1,5.1c0,0,0,0,0,0
			C207.7,436.8,210,441.3,214.2,442.6z"/>
		<circle class="st0" cx="264" cy="440" r="8"/>
		<path class="st0" d="M308.1,422.5c-4.2,1.4-6.5,5.9-5.1,10.1c1.4,4.2,5.9,6.5,10.1,5.1c4.2-1.4,6.5-5.9,5.1-10.1
			C316.8,423.4,312.3,421.1,308.1,422.5C308.1,422.5,308.1,422.5,308.1,422.5z"/>
		<path class="st0" d="M347.1,399.8c-3.6,2.6-4.4,7.6-1.8,11.2s7.6,4.4,11.2,1.8c3.6-2.6,4.4-7.6,1.8-11.2
			C355.7,398,350.7,397.2,347.1,399.8C347.1,399.8,347.1,399.8,347.1,399.8z"/>
		<path class="st0" d="M377.2,366.2c-2.6,3.6-1.8,8.6,1.8,11.2c3.6,2.6,8.6,1.8,11.2-1.8c2.6-3.6,1.8-8.6-1.8-11.2c0,0,0,0,0,0
			C384.8,361.8,379.8,362.6,377.2,366.2z"/>
		<path class="st0" d="M395.4,324.9c-1.4,4.2,0.9,8.7,5.1,10.1s8.7-0.9,10.1-5.1c1.4-4.2-0.9-8.7-5.1-10.1
			C401.3,318.4,396.8,320.7,395.4,324.9C395.4,324.9,395.4,324.9,395.4,324.9z"/>
		<path class="st0" d="M256,480c-105.9,0-192-86.1-192-192S150.1,96,256,96c21.2,0,42.3,3.5,62.4,10.4c4.2,1.4,6.5,5.9,5.1,10.1
			c-1.4,4.2-5.9,6.5-10.1,5.1c0,0-0.1,0-0.1,0c-18.4-6.3-37.7-9.5-57.1-9.5c-97,0-176,79-176,176s79,176,176,176s176-79,176-176
			c0-52.9-23.8-103-64.8-136.4c-3.5-2.8-4-7.8-1.3-11.2c2.8-3.5,7.8-4,11.2-1.3c0,0,0.1,0.1,0.1,0.1c44.8,36.4,70.8,91,70.7,148.7
			C448,393.9,361.9,480,256,480z"/>
		<path class="st0" d="M414.4,129.6c-1.9-1.9-3.8-3.7-5.7-5.5l20-26.8c2.6-3.5,1.9-8.6-1.6-11.2L401.4,67c-3.5-2.6-8.6-1.9-11.2,1.6
			c0,0,0,0,0,0l-19.8,26.6c-25.2-15-53.2-24.9-82.3-29V48c13.3,0,24-10.8,24-24c0-3.7-0.9-7.4-2.5-10.7c-2-3.9-6.9-5.5-10.8-3.4
			c-3.9,2-5.4,6.7-3.5,10.6c0.6,1.1,0.8,2.3,0.8,3.6c0,4.4-3.6,8-8,8h-64c-4.4,0-8-3.6-8-8s3.6-8,8-8h16.7c4.4,0,8-3.6,8-8
			s-3.6-8-8-8H224c-13.3,0-24,10.7-24,24s10.7,24,24,24v18.3c-28.6,4.1-56.1,13.7-81.1,28.3c-3.8,2.2-5.1,7.1-2.9,10.9
			c2.2,3.8,7.1,5.1,10.9,2.9l0,0C182.9,89.8,219.1,80,256,80c114.7,0,208,93.3,208,208s-93.3,208-208,208S48,402.7,48,288
			c-0.1-52,19.4-102.1,54.6-140.4c3-3.3,2.7-8.3-0.6-11.3c-3.2-2.9-8.2-2.7-11.2,0.5c-83.5,91.3-77.2,233,14,316.5
			s233,77.2,316.5-14C502.2,350.8,499.1,214.4,414.4,129.6L414.4,129.6z M272,64.6c-5.3-0.4-10.6-0.6-16-0.6c-5.3,0-10.7,0.2-16,0.6
			V48h32V64.6z M398.2,84.6l12.8,9.6l-14.5,19.4c-4.2-3.4-8.4-6.6-12.8-9.6L398.2,84.6z"/>
		<path class="st0" d="M408,296H289.2c-4.4,0-8-3.6-8-8s3.6-8,8-8h110.6c-4-73-62.7-131.8-135.8-135.8v112c0,4.4-3.6,8-8,8
			s-8-3.6-8-8V136c0-4.4,3.6-8,8-8c88.2,0,160,71.8,160,160C416,292.4,412.4,296,408,296z"/>
	</g>
</g>
</svg>
